<svg data-v-1084b650="" xmlns="http://www.w3.org/2000/svg" viewBox="0 0 300 300"><!----> <!----> <rect data-v-1084b650="" fill="#ffffff" x="0" y="0" width="300px" height="300px" class="logo-background-square"></rect> <!----> <g data-v-1084b650="" id="918359b2-1784-2e81-6073-abd8cbf98f25" fill="#000000" transform="matrix(2.8,0,0,2.8,98.89780811965466,128.44000253677368)"><path d="M0.14 4.20L2.66 4.20L2.66 12.60L4.20 12.60L4.20 4.20L6.72 4.20L6.72 2.80L0.14 2.80ZM6.16 9.38C6.16 10.40 6.50 11.21 7.18 11.82C7.85 12.43 8.69 12.74 9.70 12.74C10.71 12.74 11.55 12.43 12.23 11.82C12.91 11.21 13.24 10.40 13.24 9.38C13.24 8.36 12.91 7.55 12.23 6.94C11.55 6.33 10.71 6.02 9.70 6.02C8.69 6.02 7.85 6.33 7.18 6.94C6.50 7.55 6.16 8.36 6.16 9.38ZM7.64 9.38C7.64 8.75 7.84 8.26 8.22 7.90C8.60 7.53 9.10 7.35 9.70 7.35C10.31 7.35 10.80 7.53 11.19 7.90C11.57 8.26 11.76 8.75 11.76 9.38C11.76 10.01 11.57 10.50 11.19 10.86C10.80 11.23 10.31 11.41 9.70 11.41C9.10 11.41 8.60 11.23 8.22 10.86C7.84 10.50 7.64 10.01 7.64 9.38ZM18.13 7.67L18.75 6.47C18.46 6.17 18.06 6.02 17.54 6.02C17.29 6.02 17.04 6.11 16.78 6.29C16.52 6.47 16.30 6.72 16.11 7.03L16.11 6.16L14.57 6.16L14.57 12.60L16.11 12.60L16.11 8.82C16.11 7.84 16.47 7.35 17.19 7.35C17.52 7.35 17.83 7.46 18.13 7.67ZM23.28 7.67L23.90 6.47C23.61 6.17 23.21 6.02 22.69 6.02C22.44 6.02 22.19 6.11 21.93 6.29C21.67 6.47 21.45 6.72 21.27 7.03L21.27 6.16L19.73 6.16L19.73 12.60L21.27 12.60L21.27 8.82C21.27 7.84 21.63 7.35 22.34 7.35C22.67 7.35 22.98 7.46 23.28 7.67ZM29.47 8.69L25.91 8.69C25.98 8.26 26.19 7.92 26.55 7.66C26.91 7.41 27.32 7.28 27.79 7.28C28.78 7.28 29.34 7.75 29.47 8.69ZM25.89 9.73L31.01 9.73C31.03 9.61 31.04 9.45 31.04 9.25C31.04 8.25 30.74 7.45 30.16 6.88C29.57 6.31 28.78 6.02 27.79 6.02C26.78 6.02 25.96 6.33 25.33 6.96C24.70 7.59 24.39 8.40 24.39 9.38C24.39 10.38 24.69 11.19 25.29 11.81C25.89 12.43 26.73 12.74 27.79 12.74C29.20 12.74 30.23 12.24 30.88 11.24L29.78 10.56C29.42 11.13 28.76 11.41 27.79 11.41C27.28 11.41 26.85 11.27 26.50 10.98C26.16 10.69 25.95 10.27 25.89 9.73ZM33.84 7.15L33.84 6.16L32.37 6.16L32.37 12.60L33.84 12.60L33.84 8.96C33.84 8.51 34.00 8.13 34.34 7.82C34.67 7.51 35.05 7.35 35.48 7.35C35.89 7.35 36.19 7.45 36.40 7.64C36.61 7.83 36.71 8.18 36.71 8.68L36.71 12.60L38.18 12.60L38.18 8.54C38.18 7.63 37.98 6.98 37.58 6.59C37.19 6.21 36.62 6.02 35.90 6.02C35.01 6.02 34.32 6.40 33.84 7.15ZM39.79 3.92L39.79 6.16L38.74 6.16L38.74 7.49L39.79 7.49L39.79 12.60L41.26 12.60L41.26 7.49L42.31 7.49L42.31 6.16L41.26 6.16L41.26 3.92ZM43.01 7.70C43.01 9.18 43.51 10.42 44.53 11.40C45.54 12.39 46.78 12.88 48.26 12.88C49.44 12.88 50.50 12.55 51.42 11.89L52.16 12.60L54.19 12.60L52.44 10.91C53.15 9.99 53.51 8.92 53.51 7.70C53.51 6.23 52.99 4.99 51.97 4.00C50.94 3.01 49.70 2.52 48.26 2.52C46.78 2.52 45.54 3.01 44.53 4.00C43.51 4.98 43.01 6.22 43.01 7.70ZM47.82 8.40L50.33 10.82C49.71 11.23 49.02 11.44 48.26 11.44C47.22 11.44 46.35 11.08 45.65 10.37C44.94 9.65 44.59 8.76 44.59 7.70C44.59 6.64 44.94 5.75 45.65 5.03C46.35 4.32 47.22 3.96 48.26 3.96C49.32 3.96 50.20 4.32 50.89 5.03C51.58 5.74 51.93 6.63 51.93 7.70C51.93 8.51 51.73 9.22 51.32 9.81L49.85 8.40ZM54.91 2.80L54.91 12.60L60.30 12.60L60.30 11.20L56.45 11.20L56.45 2.80Z"></path></g> <linearGradient data-v-1084b650="" gradientTransform="rotate(25)" id="64e76d06-18ee-74ce-e28d-d6666220e552" x1="0%" y1="0%" x2="100%" y2="0%"><stop data-v-1084b650="" offset="0%" style="stop-color: rgb(81, 164, 251); stop-opacity: 1;"></stop> <stop data-v-1084b650="" offset="100%" style="stop-color: rgb(81, 164, 251); stop-opacity: 1;"></stop></linearGradient> <g data-v-1084b650="" id="66020930-c114-ca62-d4f5-23e244be7dde" fill="url(#64e76d06-18ee-74ce-e28d-d6666220e552)" stroke="none" transform="matrix(0.20046715637991624,0,0,0.20046715637991624,30.44372201776809,119.93022554912423)"><svg xmlns="http://www.w3.org/2000/svg" viewBox="0 0 100 100"><path d="M67.572 28.296c-.622 0-1.231.041-1.832.109-2.423-8.417-10.163-14.581-19.358-14.581-11.132 0-20.156 9.024-20.156 20.156 0 .933.085 1.841.208 2.74-5.967.899-10.544 6.033-10.544 12.25 0 6.852 5.553 12.403 12.402 12.403h39.28c9.134 0 16.538-7.405 16.538-16.538s-7.404-16.539-16.538-16.539M19.429 76.949l8.356-11.497 2.925 2.126-8.355 11.497zM42.664 78.818l9.724-13.38 2.928 2.128-9.724 13.38zM54.262 83.084L67.02 65.52l2.926 2.125-12.759 17.564zM31.25 86.175l-2.926-2.126L38.349 70.25l2.926 2.127zM69.681 81.199l3.648-5.019 2.927 2.128-3.647 5.018z"></path></svg></g></svg>