<svg data-v-1084b650="" xmlns="http://www.w3.org/2000/svg" viewBox="0 0 300 300"><!----> <!----> <rect data-v-1084b650="" fill="#ffffff" x="0" y="0" width="300px" height="300px" class="logo-background-square"></rect> <!----> <linearGradient data-v-1084b650="" gradientTransform="rotate(25)" id="7b6b1043-d0b4-1650-8d11-cfc2321319b1" x1="0%" y1="0%" x2="100%" y2="0%"><stop data-v-1084b650="" offset="0%" style="stop-color: rgb(81, 164, 251); stop-opacity: 1;"></stop> <stop data-v-1084b650="" offset="100%" style="stop-color: rgb(81, 164, 251); stop-opacity: 1;"></stop></linearGradient> <g data-v-1084b650="" id="3aaa3517-ccd8-1a55-2043-3d6c595028b8" fill="url(#7b6b1043-d0b4-1650-8d11-cfc2321319b1)" stroke="none" transform="matrix(1,0,0,1,0.00000762939453125,0.001491546630859375)"><svg xmlns="http://www.w3.org/2000/svg" viewBox="0 0 100 100"><path d="M67.572 28.296c-.622 0-1.231.041-1.832.109-2.423-8.417-10.163-14.581-19.358-14.581-11.132 0-20.156 9.024-20.156 20.156 0 .933.085 1.841.208 2.74-5.967.899-10.544 6.033-10.544 12.25 0 6.852 5.553 12.403 12.402 12.403h39.28c9.134 0 16.538-7.405 16.538-16.538s-7.404-16.539-16.538-16.539M19.429 76.949l8.356-11.497 2.925 2.126-8.355 11.497zM42.664 78.818l9.724-13.38 2.928 2.128-9.724 13.38zM54.262 83.084L67.02 65.52l2.926 2.125-12.759 17.564zM31.25 86.175l-2.926-2.126L38.349 70.25l2.926 2.127zM69.681 81.199l3.648-5.019 2.927 2.128-3.647 5.018z"></path></svg></g></svg>