<svg data-v-1084b650="" xmlns="http://www.w3.org/2000/svg" viewBox="0 0 300 300"><!----> <!----> <rect data-v-1084b650="" fill="#ffffff" x="0" y="0" width="300px" height="300px" class="logo-background-square"></rect> <!----> <g data-v-1084b650="" id="93bf22bf-2083-7b4f-a39b-cb264ac8bd12" fill="#000000" transform="matrix(2.8,0,0,2.8,98.15400608181955,120.34800338745117)"><path d="M3.25 14.35L4.83 14.35L4.83 5.98L7.74 5.98L7.74 4.58L0.34 4.58L0.34 5.98L3.25 5.98ZM11.12 14.52C13.15 14.52 14.46 13.03 14.46 10.71C14.46 8.39 13.15 6.90 11.12 6.90C9.09 6.90 7.77 8.39 7.77 10.71C7.77 13.03 9.09 14.52 11.12 14.52ZM11.12 13.26C10.08 13.26 9.38 12.61 9.38 11.33L9.38 10.09C9.38 8.81 10.08 8.16 11.12 8.16C12.15 8.16 12.85 8.81 12.85 10.09L12.85 11.33C12.85 12.61 12.15 13.26 11.12 13.26ZM17.68 14.35L17.68 9.70C17.68 8.95 18.35 8.54 19.56 8.54L20.16 8.54L20.16 7.07L19.75 7.07C18.59 7.07 17.96 7.73 17.75 8.47L17.68 8.47L17.68 7.07L16.16 7.07L16.16 14.35ZM23.04 14.35L23.04 9.70C23.04 8.95 23.72 8.54 24.92 8.54L25.52 8.54L25.52 7.07L25.12 7.07C23.95 7.07 23.32 7.73 23.11 8.47L23.04 8.47L23.04 7.07L21.52 7.07L21.52 14.35ZM29.67 14.52C31.02 14.52 32.09 13.93 32.63 13.05L31.74 12.17C31.32 12.84 30.72 13.26 29.82 13.26C28.59 13.26 27.90 12.46 27.90 11.34L27.90 11.10L32.90 11.10L32.90 10.53C32.90 8.51 31.81 6.90 29.67 6.90C27.59 6.90 26.32 8.39 26.32 10.71C26.32 13.03 27.59 14.52 29.67 14.52ZM29.67 8.09C30.67 8.09 31.29 8.83 31.29 9.95L31.29 10.09L27.90 10.09L27.90 10.00C27.90 8.88 28.62 8.09 29.67 8.09ZM36.12 14.35L36.12 9.48C36.12 8.62 36.90 8.22 37.70 8.22C38.64 8.22 39.07 8.79 39.07 9.93L39.07 14.35L40.60 14.35L40.60 9.73C40.60 7.94 39.72 6.90 38.23 6.90C37.11 6.90 36.50 7.49 36.19 8.27L36.12 8.27L36.12 7.07L34.59 7.07L34.59 14.35ZM46.06 14.35L46.06 13.10L44.65 13.10L44.65 8.32L46.17 8.32L46.17 7.07L44.65 7.07L44.65 5.08L43.27 5.08L43.27 6.36C43.27 6.86 43.11 7.07 42.60 7.07L41.99 7.07L41.99 8.32L43.12 8.32L43.12 12.77C43.12 13.76 43.68 14.35 44.73 14.35ZM54.05 15.46L52.56 15.46L52.56 14.45C54.63 14.10 55.93 12.38 55.93 9.46C55.93 6.17 54.26 4.41 51.72 4.41C49.17 4.41 47.50 6.17 47.50 9.46C47.50 12.46 48.89 14.20 51.07 14.48L51.07 15.22C51.07 16.17 51.58 16.77 52.67 16.77L54.05 16.77ZM51.72 13.10C50.20 13.10 49.20 12.01 49.20 10.23L49.20 8.69C49.20 6.92 50.20 5.82 51.72 5.82C53.23 5.82 54.24 6.92 54.24 8.69L54.24 10.23C54.24 12.01 53.23 13.10 51.72 13.10ZM63.46 14.35L63.46 12.95L59.49 12.95L59.49 4.58L57.90 4.58L57.90 14.35Z"></path></g> <linearGradient data-v-1084b650="" gradientTransform="rotate(25)" id="b289ae7f-9af4-3710-3ba4-0d87531e5e15" x1="0%" y1="0%" x2="100%" y2="0%"><stop data-v-1084b650="" offset="0%" style="stop-color: rgb(81, 164, 251); stop-opacity: 1;"></stop> <stop data-v-1084b650="" offset="100%" style="stop-color: rgb(81, 164, 251); stop-opacity: 1;"></stop></linearGradient> <g data-v-1084b650="" id="2d6b2683-4407-c2f8-f31d-877a6b0a2d4a" fill="url(#b289ae7f-9af4-3710-3ba4-0d87531e5e15)" stroke="none" transform="matrix(0.23916737733928814,0,0,0.23916737733928814,28.59888661785203,114.12525012840266)"><svg xmlns="http://www.w3.org/2000/svg" viewBox="0 0 100 100"><path d="M67.572 28.296c-.622 0-1.231.041-1.832.109-2.423-8.417-10.163-14.581-19.358-14.581-11.132 0-20.156 9.024-20.156 20.156 0 .933.085 1.841.208 2.74-5.967.899-10.544 6.033-10.544 12.25 0 6.852 5.553 12.403 12.402 12.403h39.28c9.134 0 16.538-7.405 16.538-16.538s-7.404-16.539-16.538-16.539M19.429 76.949l8.356-11.497 2.925 2.126-8.355 11.497zM42.664 78.818l9.724-13.38 2.928 2.128-9.724 13.38zM54.262 83.084L67.02 65.52l2.926 2.125-12.759 17.564zM31.25 86.175l-2.926-2.126L38.349 70.25l2.926 2.127zM69.681 81.199l3.648-5.019 2.927 2.128-3.647 5.018z"></path></svg></g></svg>