<svg width="210" height="59" xmlns="http://www.w3.org/2000/svg">
  <g fill="none" fill-rule="evenodd">
    <rect fill="#23272D" fill-rule="nonzero" width="210" height="58.3333333" rx="2"/>
    <path d="M44 34.052v-9.954h3.43c2.478 0 3.5 1.176 3.5 2.954 0 1.834-1.05 3.066-3.514 3.066h-2.352v3.934H44zm1.064-4.886h2.338c1.722 0 2.436-.742 2.436-2.086 0-1.372-.742-2.03-2.436-2.03h-2.338v4.116zm12.222 4.886l-.308-1.106c-.434.742-1.344 1.274-2.478 1.274-1.456 0-2.478-.784-2.478-2.17 0-2.338 2.66-2.31 4.914-2.394v-.448c0-1.078-.546-1.666-1.722-1.666-1.12 0-1.736.462-1.848 1.274-.336-.028-.658-.042-.98-.056.182-1.372 1.246-2.058 2.856-2.058 1.764 0 2.716.854 2.716 2.716v4.634h-.672zm-.35-2.968v-.63c-2.632.084-3.864.196-3.864 1.582 0 .84.546 1.33 1.526 1.33 1.582 0 2.338-1.064 2.338-2.282zm2.744 5.614c.042-.294.07-.574.126-.868.168.084.49.14.812.14.854 0 1.036-.658 1.554-1.96-.98-2.352-1.974-4.732-2.968-7.098h1.148c.784 1.96 1.582 3.934 2.352 5.894.742-1.96 1.47-3.934 2.198-5.894h1.106c-.952 2.52-1.974 5.054-2.954 7.56-.546 1.442-.938 2.394-2.296 2.394-.504 0-.826-.098-1.078-.168zm20.202-9.786l-1.946 7.14h-1.092l-1.834-5.824-1.806 5.824h-1.092l-1.946-7.14h1.064l1.47 5.866 1.834-5.81h1.022l1.806 5.796 1.47-5.852h1.05zm2.618-1.568h-1.19v-1.26h1.19v1.26zm-.07 8.708h-1.036v-7.14h1.036v7.14zm5.908-.07c-.378.098-.784.196-1.302.196-1.484 0-1.904-.952-1.904-2.296v-4.116h-1.246v-.854h1.246V25.33l1.036-.518v2.1h2.016v.854h-2.016v4.27c0 .742.252 1.232 1.008 1.232.406 0 .728-.042 1.064-.126l.098.84zm1.442.07V24h1.022v4.046c.56-.896 1.47-1.344 2.408-1.344 1.624 0 2.45.98 2.45 2.618v4.732h-1.036v-4.564c0-1.26-.476-1.862-1.596-1.862-1.638 0-2.226 1.358-2.226 2.898v3.528H89.78z" fill="#C7CDD6"/>
    <g fill="#FFF">
      <path d="M109.59215159 34.7182592c.48696864 0 .94590763-.1252824 1.37719068-.3707734.43240424-.2462716.80575932-.5784065 1.11819661-.9921115.31281102-.4156565.56021949-.8836115.74035678-1.4065971.18088474-.5229857.27207457-1.068608.27207457-1.6360864 0-.69744422-.11174491-1.24150537-.33448728-1.63452515-.22236865-.39145864-.63384407-.58855396-1.23143644-.58855396-.1958339 0-.44810085.03902878-.7612856.10889029-.3139322.07376439-.59497627.22753777-.84612203.45897842l-1.37719068 5.9714029c.08334153.0156115.15659237.0300521.21900509.0437122.06166525.0148309.12931017.0253687.19658135.0327842.07175593.008196.15322882.0124892.25189322.0124892.09903814 0 .22236865.0003903.37522373.0003903m2.71289746-9.3317806c.66897457 0 1.24675932.12528237 1.73260678.37077338.48734237.24822302.8898483.58230935 1.21312377 1.00264928.3184169.42268165.5557347.91678597.7085898 1.48270324.1521076.56747841.2283483 1.17788849.2283483 1.8312302 0 1.0034299-.1756526 1.9514389-.5310687 2.8448076-.3557898.8949298-.83789995 1.6712122-1.45118893 2.3331403-.61291526.6615377-1.33645424 1.1825719-2.17136441 1.5677859-.83304153.3856043-1.73896017.5780162-2.71177627.5780162-.12594661 0-.34682034-.0039029-.6588839-.0101475-.31243729-.0070251-.67159068-.0405899-1.07372288-.0971816-.40437458-.0593238-.83229407-.1463579-1.28413221-.263054-.45183813-.1147446-.88050508-.2755431-1.2841322-.4792734l3.61134153-15.846464 3.23424915-.52376618-1.2931017 5.62326619c.27693305-.12996583.55573475-.23066007.83378899-.30442446.27880169-.07220324.57778474-.11006115.89732288-.11006115M121.0456317 24.23196835c-.4312831 0-.8222034-.134259-1.1690238-.40277698-.3498101-.26695684-.5228466-.67832015-.5228466-1.2317482 0-.30481475.0590492-.5905054.1764-.86058454.1195933-.26890827.2754382-.50073921.4708983-.69783453.1950865-.19514388.4208187-.351259.6779441-.4691259.2578729-.11552518.5325636-.17328777.825567-.17328777.4309093 0 .819961.134259 1.1682762.4023867.3464466.27007913.520978.68105215.520978 1.23174819 0 .3063759-.0586754.59284713-.1775212.86214569-.1177246.26929856-.2735695.50112949-.4686559.69783453-.1939653.19553417-.4219399.35125899-.6783178.46795504-.2582466.11747661-.5321899.17328777-.8236983.17328777zm-1.5031373 12.86154315h-3.0884949l2.6086271-11.4654838h3.1109186l-2.6306771 11.4650935-.0003737.0003903zM124.8796408 22.77221403l3.2357441-.5233759-.7945475 3.37911151h3.4655873l-.625622 2.65903058h-3.4446585l-.9175042 4.01020688c-.0848365.3344766-.1326737.6467068-.146128.9366906-.0153229.291545.0201814.5417194.1038966.7524748.0825941.2111457.2320856.3738957.4484746.4890306.2156415.1174766.5239678.1760198.9287161.1760198.3333661 0 .6581364-.0327842.9720686-.0983525.3120636-.0643975.6282382-.154554.94815-.2724209l.2305907 2.4857428c-.4174551.1604083-.8696669.2977896-1.3570093.4133148-.4873424.1174766-1.0651271.173678-1.7326068.173678-.9601093 0-1.7038296-.1483093-2.2341508-.444928-.5292-.2985702-.9036763-.7064209-1.1275399-1.2223813-.2208737-.514009-.3195381-1.1072464-.2918822-1.7754191.0284034-.6697338.1251992-1.3730324.2918822-2.1145791l2.0491551-9.0293076-.0026161.00546403zM130.6501632 32.5164117c0-.9874281.1532288-1.919045.4593127-2.79055756.3053365-.87268346.7452153-1.63569605 1.3158992-2.29059892.5688152-.65139029 1.2620822-1.1681313 2.0779322-1.54671044.8113652-.37662769 1.7206474-.56708813 2.7226144-.56708813.6267432 0 1.1869627.06205576 1.679911.18616727.4944432.12489209.9421703.28686151 1.3469186.48981115l-1.0651271 2.52984533c-.2780542-.11747662-.5673203-.22168346-.8663034-.31574281-.2986093-.09601079-.6637423-.14245504-1.0950254-.14245504-1.0314915 0-1.8465941.37116367-2.4535297 1.11114928-.6043194.7403759-.9085347 1.73678057-.9085347 2.98687227 0 .7411565.1532288 1.3402482.4604339 1.7988364.3053364.4585881.8700407.6865162 1.6900017.6865162.4047483 0 .7949212-.0444929 1.1690237-.1303562.3767187-.0874244.709711-.1970953 1.0027144-.3266708l.2305907 2.5930719c-.3909203.1584569-.8218297.3013022-1.2945966.4265846-.4735144.1209892-1.0374712.1834352-1.6911229.1834352-.8633135 0-1.5939534-.1319173-2.1915458-.3914586-.5979661-.2638346-1.0920355-.6139227-1.4810872-1.0576799-.3912941-.4445378-.6723382-.9636205-.8461221-1.5595899-.1737839-.5955792-.2623576-1.2208202-.2623576-1.8733813M145.9182933 28.06888741c-.4581915 0-.8633136.13855216-1.2093865.41331475-.3483152.2774946-.6401974.62602158-.8760203 1.0467518-.2380652.42229136-.4144652.88322124-.5340585 1.38435074-.1180983.50191-.1760262.9765-.1760262 1.4268921 0 .7278867.1121186 1.2945845.3329923 1.7024352.2242373.405509.6263695.6092392 1.2108814.6092392.4596864 0 .8625661-.1377716 1.2116288-.4148759.3453254-.2751529.6383288-.6244604.8752729-1.0459712.2365703-.4203399.414839-.8828309.5340585-1.3843507.1169771-.5003489.1764-.9776709.1764-1.4272824 0-.72554496-.111745-1.29380395-.3348611-1.70087409-.2223686-.40589928-.6267432-.6096295-1.2108813-.6096295m-1.5438737 9.32865829c-.737367 0-1.3775645-.1170863-1.9209661-.3493076-.5419068-.2322212-.9907551-.5585018-1.3454238-.9807931-.3554161-.42034-.621511-.9183472-.8035169-1.4928508-.1823797-.573723-.2698322-1.2095018-.2698322-1.9053848 0-.8734641.1341686-1.7465378.4054957-2.6172698.2698322-.87268348.6708433-1.65677161 1.2015382-2.35343528.5262101-.69783454 1.1750034-1.26843526 1.9396525-1.71336331.763528-.44219605 1.6421644-.66426979 2.6284348-.66426979.7242864 0 1.3611203.11747662 1.9119966.34969784.5478864.23183094.9997245.56045324 1.3566356.98079317.3531737.42268165.6211373.91873741.802022 1.4936313.1812585.57255215.2709534 1.20989208.2709534 1.90655577 0 .8711223-.1323 1.7438057-.3950314 2.6172698-.2631051.8691708-.6536517 1.6548201-1.1690237 2.3534352-.5146246.697054-1.1578119 1.2672644-1.9303093 1.710241-.7721237.4429766-1.6668305.6650504-2.6826254.6650504M155.4191898 24.23196835c-.4309093 0-.8214559-.134259-1.1682763-.40277698-.3479415-.26695684-.5224728-.67832015-.5224728-1.2317482 0-.30481475.0601703-.5905054.1778949-.86058454.1177245-.26890827.2746907-.50073921.4701508-.69783453.1939653-.19514388.4219399-.351259.6779441-.4691259.2571254-.11552518.5314424-.17328777.8236983-.17328777.4316568 0 .8218297.134259 1.1690237.4023867.3479415.27007913.5235941.68105215.5235941 1.23174819 0 .3063759-.0624127.59284713-.1793898.86214569-.1166034.26929856-.2735695.50112949-.4682822.69783453-.1958339.19553417-.4211924.35125899-.6775704.46795504-.2586203.11747661-.533311.17328777-.8263144.17328777zm-1.5012686 12.86154315h-3.0918585l2.6090008-11.46470323h3.1124136l-2.6295559 11.46470323zM158.7736301 26.15062302c.2347017-.07181295.4963119-.15767626.781467-.25173561.2855288-.09327878.6050669-.18031295.9616042-.25915108.3528-.08117986.751195-.1467482 1.1892051-.19748561.4376365-.05190827.9369382-.07727698 1.4908043-.07727698 1.6294576 0 2.7525127.49566547 3.3725288 1.48348381.6200161.98781835.7272762 2.34016547.325144 4.05430935l-1.4212906 6.1903543h-3.1097975l1.3771907-6.0599982c.0844627-.3785791.1498652-.7442788.1988237-1.10139206.0493322-.35477159.0463424-.6670018-.0108381-.93708094-.0549382-.26656655-.1842483-.48551799-.3849407-.65490288-.2040559-.16626259-.5120085-.25017446-.930211-.25017446-.402506 0-.8121127.04527338-1.230689.13269784l-2.0252364 8.8704604h-3.1109187l2.5271542-10.94210788z"/>
    </g>
  </g>
</svg>